<svg width="70" height="62" viewBox="0 0 70 62" fill="none" xmlns="http://www.w3.org/2000/svg">
<path d="M63.4375 30.75C66.9922 30.75 70 33.7578 70 37.3125V54.8125C70 58.5039 66.9922 61.375 63.4375 61.375H45.9375C42.2461 61.375 39.375 58.5039 39.375 54.8125V22C39.375 9.96875 49.082 0.125 61.25 0.125H62.3438C64.1211 0.125 65.625 1.62891 65.625 3.40625V9.96875C65.625 11.8828 64.1211 13.25 62.3438 13.25H61.25C56.3281 13.25 52.5 17.2148 52.5 22V30.75H63.4375ZM24.0625 30.75C27.6172 30.75 30.625 33.7578 30.625 37.3125V54.8125C30.625 58.5039 27.6172 61.375 24.0625 61.375H6.5625C2.87109 61.375 0 58.5039 0 54.8125V22C0 9.96875 9.70703 0.125 21.875 0.125H22.9688C24.7461 0.125 26.25 1.62891 26.25 3.40625V9.96875C26.25 11.8828 24.7461 13.25 22.9688 13.25H21.875C16.9531 13.25 13.125 17.2148 13.125 22V30.75H24.0625Z" fill="#ECEFF4"/>
</svg>
